# xmcd CD database file
#
# Track frame offsets:
#	225
#	11736
#	24057
#	34677
#	51668
#	65280
#	77700
#	88357
#	101375
#	109542
#	122854
#	132610
#	142529
#	154160
#	163213
#	177454
#	188048
#	198204
#
# Disc length: 2773 seconds
#
# Revision: 0
# Processed by: cddbd v1.5.2PL0 Copyright (c) Steve Scherf et al.
# Submitted via: CDex 1.51
#
DISCID=f00ad212
DTITLE=Willie Nelson - Building Heartaches
DYEAR=2003
DGENRE=Country
TTITLE0=touch me
TTITLE1=i-cant-find-the-time 
TTITLE2=blame-it-on-the-times 
TTITLE3=i-let-me-mind-wonder 
TTITLE4=last-letter 
TTITLE5=shelter-of-your-arms 
TTITLE6=suffering-in-silence 
TTITLE7=a-moment-isnt-very-long 
TTITLE8=things-to-remember 
TTITLE9=youll-always-have-someone 
TTITLE10=half-a-man 
TTITLE11=i-didnt-sleep-a-wink 
TTITLE12=end-of-understanding 
TTITLE13=building-heartaches 
TTITLE14=face-of-a-fighter 
TTITLE15=i-feel-sorry-for-him 
TTITLE16=pride-wins-again 
TTITLE17=broken-promises - WILLIE NELSON
EXTD=
EXTT0=
EXTT1=
EXTT2=
EXTT3=
EXTT4=
EXTT5=
EXTT6=
EXTT7=
EXTT8=
EXTT9=
EXTT10=
EXTT11=
EXTT12=
EXTT13=
EXTT14=
EXTT15=
EXTT16=
EXTT17=
PLAYORDER=
